<svg width="32" height="29" viewBox="0 0 32 29" fill="none" xmlns="http://www.w3.org/2000/svg">
<g id="Group ">
<path id="Vector" fill-rule="evenodd" clip-rule="evenodd" d="M23.6879 25.3221L22.7304 26.0557C21.9761 26.5918 21.1709 27.0697 20.4279 27.3895C19.7205 27.6942 19.5757 27.7544 18.8458 27.9858C17.6343 28.3714 16.2084 28.7025 14.9405 28.7891L13.776 28.7985C13.6556 28.7909 13.5277 28.7853 13.4092 28.7834C13.1308 28.7759 12.954 28.7364 12.6812 28.71C12.6285 28.7044 12.6191 28.7063 12.5683 28.7025L11.5412 28.5295C11.4265 28.5069 11.2929 28.4693 11.1838 28.441C9.20856 27.9275 8.57648 27.5306 6.92482 26.5523C5.4782 25.6964 4.18771 24.5583 3.11921 23.2076L2.83139 22.8333C1.7817 21.4149 0.970914 19.782 0.470523 18.0043C0.400919 17.7447 -0.157788 15.254 0.0434971 14.938L0.267356 16.6687C0.288049 16.7834 0.310623 16.9019 0.335078 17.0186C0.380226 17.25 0.447949 17.4757 0.506265 17.7221C0.645471 18.3091 1.24368 20.0999 1.59546 20.5608L0.861806 18.6778L0.408444 16.8305C0.246663 15.9952 0.199634 15.254 0.190228 14.4188C0.184585 13.988 0.246663 12.7389 0.335078 12.3401C0.361415 12.2216 0.368939 12.1802 0.383989 12.0636C0.399038 11.9488 0.406563 11.8717 0.423493 11.7569C0.485572 11.3092 0.801608 10.1899 0.93329 9.7836C1.08378 9.31331 1.40735 8.5345 1.62556 8.08867C2.73921 5.80304 4.37959 3.9388 6.70848 2.32664C7.88797 1.51021 9.20479 1.00794 10.5122 0.582798C10.9298 0.447354 11.3023 0.385276 11.7143 0.27993C11.9419 0.221614 12.1168 0.21597 12.3238 0.178347C13.2963 0.00151692 14.6414 -0.0342253 15.6309 0.0334968C15.7306 0.0410215 15.8096 0.0560708 15.9093 0.069239C16.0184 0.0842884 16.0748 0.0955754 16.1896 0.0955754C16.5075 0.0974566 16.658 0.168941 17.053 0.219733L18.21 0.473691C19.9312 0.940221 21.2104 1.57606 22.6683 2.56179C23.4829 3.11297 24.2786 3.809 24.9464 4.58781L24.8467 4.65929C24.3482 4.16831 23.5675 3.47039 23.3117 3.26535C22.5649 2.66902 21.2085 1.80556 20.347 1.4613C18.9003 0.885667 18.5674 0.74646 17.0229 0.443592C16.9119 0.421018 16.8913 0.402206 16.7765 0.381513L15.1813 0.223495L13.5635 0.236663C12.5062 0.306266 10.768 0.611016 9.74469 1.01923C9.45123 1.13586 8.87935 1.30893 8.63104 1.50081L9.58667 1.13774C9.90083 1.02675 10.2093 0.943983 10.5028 0.861211C11.1612 0.676857 12.0736 0.50567 12.7677 0.454879C13.3942 0.409731 14.7693 0.342009 15.4089 0.426661C15.4973 0.437948 15.5443 0.449235 15.6327 0.451116C16.2855 0.464285 16.9345 0.622303 17.5798 0.744579C18.4319 0.906359 19.3255 1.27883 20.1062 1.58546C20.6385 1.79427 22.2902 2.67466 22.5555 3.00574L21.2932 2.26268C20.5671 1.83754 19.5362 1.44061 18.7423 1.17725C18.5147 1.102 17.6324 0.8424 17.4518 0.853687C17.4424 0.912003 17.5308 0.8424 17.3822 0.957151C17.7246 1.07378 18.0707 1.13398 18.4188 1.2619C18.6351 1.34279 18.4902 1.33715 18.9286 1.48388C20.8718 2.13664 22.8019 3.39515 24.3294 5.02988L24.273 5.07127C23.8497 4.61038 23.4246 4.21534 22.958 3.82593C22.5122 3.45534 21.3609 2.62951 20.8492 2.40377L20.7138 2.35862C20.8887 2.57684 21.075 2.5806 21.2518 2.79882L21.1878 2.84773C21.0957 2.7706 19.9237 2.17427 19.7732 2.17803L20.8586 2.75555C21.0806 2.88535 21.7315 3.26911 21.9008 3.45346C21.7371 3.45723 21.6337 3.33495 21.4757 3.23525C20.6197 2.69535 19.6867 2.24575 18.7292 1.92595L18.5373 1.87328C18.5749 1.98239 18.637 1.93348 18.4432 1.94665C18.6144 2.07833 18.8006 2.0407 18.9775 2.18744L18.2946 1.99556C17.7208 1.83566 16.895 1.672 16.3062 1.59299L14.5887 1.50081C13.7384 1.51021 13.001 1.5817 12.1469 1.74536C10.7361 2.01625 9.0844 2.58248 7.81273 3.42713C7.29541 3.77138 6.82888 4.13821 6.32849 4.56523L5.66255 5.16345C5.43117 5.39483 5.26562 5.5378 5.04741 5.76166C3.6196 7.2459 2.69407 8.93895 2.20496 10.886C2.14288 11.1305 1.68576 13.3108 1.86635 13.5911C1.92279 13.4237 1.89269 13.2694 1.91902 13.0869C1.9416 12.9157 1.96041 12.7841 1.98298 12.6129C2.29149 10.2878 3.33931 7.85352 4.90068 6.08146C6.55046 4.20781 8.52945 2.81951 10.9637 2.09714C11.3173 1.99179 11.656 1.89585 11.9908 1.83189C12.1582 1.79992 12.305 1.76982 12.4856 1.73596C12.8185 1.67388 12.8561 1.64754 12.9671 1.73407C12.1093 1.78863 10.4652 2.37743 9.69013 2.71228C8.56896 3.19574 7.37818 4.03098 6.30215 4.99038C4.5884 6.51977 3.57069 8.29936 2.83327 10.4288C2.78624 10.5643 2.75614 10.6602 2.72228 10.7825L2.53981 11.5519C2.49654 11.7212 2.49654 11.7758 2.47209 11.9394C2.44951 12.0956 2.41189 12.1633 2.3912 12.3251C2.02249 15.1656 2.51912 17.7899 3.98831 20.3633C4.67494 21.5654 5.56285 22.5266 6.60502 23.4277C7.0565 23.8171 7.57194 24.1727 8.0554 24.4586C9.70518 25.4368 11.8365 26.146 13.729 26.1592C14.2256 26.1629 14.3667 26.1818 14.9217 26.146C16.7821 26.0237 19.0395 25.4199 20.6385 24.3006C21.4437 23.7362 21.5603 23.6459 22.3109 23.0195C22.7756 22.632 23.2665 22.0507 23.6014 21.6312C25.9491 18.6853 26.0845 15.4723 26.3535 14.9286C26.4664 14.6991 26.504 14.9399 26.5247 15.0697C26.5454 15.2145 26.521 15.3142 26.5774 15.4478L26.6639 14.5806C26.6658 13.6663 26.7053 13.0023 26.6602 11.9996C26.6376 11.5011 26.4382 10.2953 26.3178 9.77043C26.1993 9.25499 26.2915 9.55974 26.267 9.33776C26.2595 9.26816 26.0112 8.53074 25.9735 8.44797C26.1353 8.38025 26.2012 8.47431 26.3686 8.69628C26.6771 9.10638 26.4758 9.05747 26.6884 9.05182C26.6376 8.93895 26.6451 8.89381 26.6376 8.79034C26.7429 8.74143 26.7768 8.74895 26.8671 8.764L26.124 7.276C25.7384 6.49155 25.8287 6.50096 25.7591 6.34858L25.5164 5.91968L25.5522 5.88582L26.0074 6.26769C25.8588 6.06453 25.9792 6.1868 25.9021 5.99869L26.6733 6.80947C26.6733 6.80006 26.6677 6.7869 26.6658 6.77937L26.4871 6.38621C26.2971 6.00809 26.3667 6.07769 26.41 6.00809C26.4457 6.02502 26.4852 6.05512 26.5266 6.09651L27.106 6.85274C27.3186 7.17818 27.5067 7.50174 27.5782 7.63907C28.3664 9.11955 28.5846 10.0658 28.9364 11.6196C29.1527 12.5734 29.1471 14.3436 29.006 15.4008L28.7539 16.87C28.6279 17.6657 28.1501 19.0521 27.8453 19.7839C27.3016 21.0894 26.0864 22.9405 25.095 23.9563C24.9972 24.056 24.8373 24.184 24.7527 24.3081C24.6323 24.4849 24.653 24.453 24.4592 24.6373C24.2222 24.8649 23.9626 25.0944 23.6879 25.3221ZM25.08 4.74771C25.1515 4.83612 25.223 4.92454 25.2926 5.01483L25.2286 5.06374C25.1778 5.00167 25.0969 4.91325 24.9953 4.80979L25.08 4.74771ZM24.4686 5.1879C24.7037 5.4475 24.9276 5.71651 25.1402 5.99304C25.1214 6.01185 25.1026 6.03067 25.0837 6.04948C24.8542 5.75037 24.6323 5.48136 24.4103 5.23117L24.4686 5.1879ZM7.935 1.83378L7.77699 1.95417L7.75253 1.92219L7.91055 1.8018L7.935 1.83378ZM7.96698 1.80932L8.09302 1.71338C8.06292 1.79615 8.19084 1.69457 8.04976 1.78863C7.97827 1.83566 8.01966 1.80556 7.96698 1.80932ZM8.29807 1.65506L8.17203 1.751C8.20213 1.66823 8.07421 1.76982 8.2153 1.67576C8.28678 1.63061 8.24728 1.66071 8.29807 1.65506ZM8.29807 1.65506C8.32064 1.63625 8.36579 1.59863 8.39213 1.58734C8.46361 1.55536 8.43163 1.57041 8.48054 1.56477C8.45797 1.58358 8.41282 1.6212 8.38648 1.63249C8.315 1.66635 8.34698 1.6513 8.29807 1.65506ZM8.48054 1.56665C8.49747 1.55348 8.53133 1.52715 8.54262 1.5215C8.61223 1.49328 8.58213 1.50457 8.63104 1.50081C8.61411 1.51398 8.58025 1.54031 8.56896 1.54596C8.49936 1.57229 8.52757 1.56289 8.48054 1.56665ZM3.13426 5.96106C3.12673 6.01938 2.97624 6.00245 3.08723 5.97235C3.08723 5.97235 3.14555 5.86888 3.13426 5.96106ZM3.03268 6.08898L3.01575 6.0871C3.01575 6.0871 3.03268 6.08522 3.03268 6.08898ZM2.96119 6.19433C2.95367 6.25264 2.80317 6.23571 2.91416 6.20561C2.91416 6.20373 2.97436 6.10027 2.96119 6.19433ZM2.89159 6.29779C2.88406 6.35611 2.73357 6.33918 2.84456 6.30908C2.84456 6.30908 2.90287 6.20561 2.89159 6.29779ZM2.8201 6.40126C2.81258 6.45957 2.66209 6.44264 2.77307 6.41254C2.77307 6.41254 2.83327 6.30908 2.8201 6.40126ZM2.7505 6.5066C2.74298 6.56492 2.59248 6.54799 2.70347 6.51789C2.70347 6.51601 2.76179 6.41254 2.7505 6.5066ZM2.56991 6.79442C2.56238 6.85274 2.41189 6.83581 2.52288 6.80571C2.52288 6.80383 2.58308 6.70036 2.56991 6.79442ZM2.36486 7.05026C2.37427 6.99194 2.28585 7.06155 2.43446 6.94679C2.42694 7.00511 2.51535 6.93551 2.36486 7.05026ZM9.27816 1.75665C9.14648 1.85259 8.89628 1.94853 8.76272 2.01437L7.11858 2.86089C7.43649 2.61822 8.33946 2.14981 8.74014 1.96922C8.82856 1.92972 8.90757 1.88833 9.01291 1.83942L9.27816 1.75665ZM2.25575 7.23461C2.26516 7.1763 2.17674 7.2459 2.32536 7.13115C2.31595 7.18947 2.40625 7.11986 2.25575 7.23461ZM9.27816 1.75665L9.72964 1.55724C9.81617 1.53843 9.76538 1.54596 9.81617 1.54408C9.71459 1.61932 9.4042 1.751 9.27816 1.75665ZM2.10714 7.49798C2.11655 7.43966 2.02813 7.50926 2.17674 7.39451C2.16922 7.45283 2.25763 7.38323 2.10714 7.49798ZM6.20997 4.35642L5.92591 4.57464L5.90146 4.54266L6.18552 4.32444L6.20997 4.35642ZM9.81617 1.54408C9.96667 1.42932 9.87637 1.49705 9.93469 1.50269C9.78419 1.61932 9.87637 1.54972 9.81617 1.54408ZM9.93469 1.50457C10.0852 1.38982 9.99488 1.45754 10.0532 1.46319C9.90459 1.57794 9.99488 1.51021 9.93469 1.50457ZM10.0532 1.46319C10.2037 1.34843 10.1134 1.41616 10.1717 1.4218C10.0231 1.53655 10.1134 1.46883 10.0532 1.46319ZM10.1717 1.4218C10.3222 1.30705 10.2319 1.37477 10.2902 1.38041C10.1416 1.49517 10.2319 1.42744 10.1717 1.4218ZM10.2921 1.38041C10.4426 1.26566 10.3523 1.33338 10.4106 1.33903C10.2601 1.45566 10.3504 1.38606 10.2921 1.38041ZM10.4106 1.34091C10.5273 1.26566 10.5084 1.27695 10.6176 1.28259C10.499 1.35784 10.5178 1.34655 10.4106 1.34091ZM10.6157 1.28259C10.7662 1.16784 10.6759 1.23556 10.7342 1.24121C10.5856 1.35596 10.6759 1.28824 10.6157 1.28259ZM10.8226 1.22428C10.9731 1.10953 10.8828 1.17725 10.9411 1.18289C10.7906 1.29764 10.8828 1.22992 10.8226 1.22428ZM11.0295 1.16784C11.1462 1.0926 11.1273 1.10388 11.2365 1.10953C11.1179 1.18477 11.1368 1.17349 11.0295 1.16784ZM1.99051 7.73877L1.56348 8.61727C1.55972 8.47242 1.66883 8.32005 1.73467 8.18649C1.79863 8.05292 1.86447 7.85164 1.99051 7.73877ZM9.98172 2.21942L9.96479 2.21753C9.96667 2.21753 9.98172 2.21377 9.98172 2.21942ZM11.4095 1.07566C11.56 0.960913 11.4697 1.02864 11.528 1.03428C11.3775 1.14903 11.4697 1.08131 11.4095 1.07566ZM10.1002 2.17803L10.0833 2.17615C10.0852 2.17615 10.1021 2.17239 10.1002 2.17803ZM10.2507 2.11219C10.2432 2.17051 10.0927 2.15357 10.2037 2.12348C10.2037 2.12348 10.2639 2.02001 10.2507 2.11219ZM10.3692 2.07268C10.3617 2.131 10.2112 2.11407 10.3222 2.08397C10.3241 2.08209 10.3824 1.97863 10.3692 2.07268ZM10.4896 2.0313C10.4821 2.08962 10.3316 2.07268 10.4426 2.04259C10.4426 2.0407 10.5009 1.93724 10.4896 2.0313ZM10.6081 1.98991C10.6006 2.04823 10.4501 2.0313 10.5611 2.0012C10.5611 2.0012 10.6194 1.89585 10.6081 1.98991ZM10.6947 1.97298L10.6777 1.9711C10.6796 1.9711 10.6966 1.96734 10.6947 1.97298ZM10.8132 1.9316L10.7963 1.92972C10.7981 1.92972 10.8151 1.92595 10.8132 1.9316ZM10.9336 1.89209C10.9261 1.95041 10.7756 1.93348 10.8866 1.90338C10.8866 1.9015 10.9449 1.79803 10.9336 1.89209ZM11.0201 1.87516L11.0032 1.87328C11.0051 1.87328 11.0201 1.86952 11.0201 1.87516ZM11.1386 1.83378C11.1311 1.89209 10.9806 1.87516 11.0916 1.84506C11.0916 1.84318 11.1518 1.73972 11.1386 1.83378ZM11.227 1.81685L11.2101 1.81496C11.2101 1.81496 11.227 1.8112 11.227 1.81685ZM1.56348 8.61727C1.56536 8.74519 1.32269 9.25123 1.2625 9.42806C1.22299 9.54469 1.21923 9.59548 1.13646 9.69518C1.13269 9.54657 1.44309 8.76212 1.56348 8.61727ZM11.5186 1.7416L11.5017 1.73972C11.5036 1.73972 11.5205 1.73596 11.5186 1.7416ZM1.13646 9.69518C1.1421 9.79865 1.16279 9.74033 1.08943 9.83063C1.08567 9.72716 1.06309 9.78548 1.13646 9.69518ZM1.08943 9.83063C1.09507 9.93409 1.11576 9.87578 1.0424 9.96607C1.03864 9.86261 1.01606 9.92092 1.08943 9.83063ZM11.987 1.63437L11.9701 1.63249C11.972 1.63249 11.9889 1.62873 11.987 1.63437ZM1.04428 9.96607C1.04992 10.0695 1.07062 10.0112 0.99725 10.1015C0.991607 9.99805 0.969033 10.0564 1.04428 9.96607ZM12.0755 1.61744L12.0585 1.61556C12.0585 1.61556 12.0755 1.6118 12.0755 1.61744ZM12.162 1.60051L12.1451 1.59863C12.1469 1.59863 12.162 1.59487 12.162 1.60051ZM12.2485 1.58358L12.2316 1.5817C12.2335 1.5817 12.2504 1.57794 12.2485 1.58358ZM0.99725 10.1015C1.00477 10.2257 1.03111 10.1786 0.942696 10.2934C0.935171 10.1674 0.908835 10.2163 0.99725 10.1015ZM0.942696 10.2934C0.94834 10.3969 0.969033 10.3385 0.895667 10.4288C0.891905 10.3254 0.869331 10.3837 0.942696 10.2934ZM0.897548 10.4288C0.905073 10.553 0.931409 10.506 0.842994 10.6207C0.835469 10.4947 0.809133 10.5436 0.897548 10.4288ZM0.842994 10.6207C0.850519 10.7449 0.876855 10.6978 0.78844 10.8126C0.780916 10.6866 0.75646 10.7336 0.842994 10.6207ZM0.782797 10.8672C0.790321 10.9913 0.816658 10.9443 0.728243 11.059C0.720718 10.933 0.694382 10.9819 0.782797 10.8672ZM14.1109 0.81042L14.094 0.808539C14.094 0.808539 14.1109 0.804776 14.1109 0.81042ZM13.6218 1.28447C13.4732 1.3522 13.3509 1.3315 13.1872 1.35032C12.1319 1.47259 11.0672 1.70586 10.0551 2.09526C8.77965 2.58436 7.61709 3.2296 6.28146 4.25296L6.257 4.22098C8.18708 2.74238 9.47192 1.95605 11.8347 1.50081C12.1451 1.44061 13.3772 1.21299 13.6218 1.28447ZM14.3084 0.808539L14.2915 0.806657C14.2934 0.806657 14.3103 0.802895 14.3084 0.808539ZM0.720718 11.1136C0.728243 11.2377 0.754579 11.1907 0.666164 11.3055C0.65864 11.1813 0.634184 11.2283 0.720718 11.1136ZM13.6218 1.28447C13.729 1.23745 13.665 1.24309 13.7647 1.27507C13.6575 1.3221 13.7215 1.31645 13.6218 1.28447ZM14.6019 0.733292L14.5849 0.731411C14.5868 0.731411 14.6038 0.727648 14.6019 0.733292ZM13.7647 1.27507C13.887 1.22428 13.9961 1.22616 14.1071 1.26378C13.983 1.31457 13.8757 1.31269 13.7647 1.27507ZM0.652996 11.4165C0.660521 11.5387 0.673689 11.5557 0.592799 11.6629C0.583393 11.5425 0.570225 11.5237 0.652996 11.4165ZM13.9491 1.38418C14.0563 1.33715 13.9924 1.34279 14.0921 1.37477C13.9848 1.4218 14.0488 1.41616 13.9491 1.38418ZM14.1071 1.26378C14.2143 1.21675 14.1504 1.2224 14.2501 1.25438C14.1429 1.30141 14.2068 1.29388 14.1071 1.26378ZM14.0921 1.37477C14.1993 1.32774 14.1353 1.33338 14.235 1.36536C14.1278 1.41239 14.1918 1.40675 14.0921 1.37477ZM14.3046 1.2619C14.4119 1.21487 14.3479 1.22051 14.4476 1.25249C14.3423 1.29952 14.4043 1.292 14.3046 1.2619ZM14.2915 1.37289C14.3987 1.32586 14.3347 1.3315 14.4344 1.36348C14.3272 1.41051 14.3893 1.40487 14.2915 1.37289ZM14.504 1.25814C14.6376 1.20358 14.5849 1.21675 14.7035 1.25626C14.5699 1.31269 14.6226 1.29952 14.504 1.25814ZM14.489 1.37101C14.5962 1.32398 14.5323 1.32962 14.632 1.3616C14.5266 1.40863 14.5887 1.40299 14.489 1.37101ZM0.5627 11.8867L0.523195 12.278C0.455473 12.1463 0.474285 11.9996 0.5627 11.8867ZM14.758 1.26378C14.8652 1.21675 14.8013 1.2224 14.901 1.25438C14.7956 1.30329 14.8577 1.29576 14.758 1.26378ZM14.6884 1.36913C14.822 1.31457 14.7693 1.32774 14.8878 1.36725C14.7542 1.4218 14.8069 1.40863 14.6884 1.36913ZM15.0684 1.27695C15.1756 1.22992 15.1117 1.23556 15.2114 1.26754C15.106 1.31457 15.1681 1.30893 15.0684 1.27695ZM14.9424 1.37477C15.0665 1.3221 15.0816 1.34091 15.1963 1.38041C15.0722 1.43121 15.059 1.41239 14.9424 1.37477ZM15.4352 1.29764C15.5688 1.24309 15.5161 1.25626 15.6346 1.29576C15.5011 1.35032 15.5537 1.33715 15.4352 1.29764ZM15.2528 1.38606C15.3938 1.32774 15.5481 1.37101 15.6741 1.41428C15.5349 1.47259 15.3807 1.42932 15.2528 1.38606ZM16.7765 1.02111C16.6523 1.02864 16.6994 1.05497 16.5846 0.966557C16.7088 0.959032 16.6617 0.934577 16.7765 1.02111ZM17.2468 1.11141C17.1433 1.11705 17.2016 1.13774 17.1113 1.06438C17.2148 1.06062 17.1546 1.03804 17.2468 1.11141ZM16.9947 1.50457C16.8706 1.5121 16.9176 1.53843 16.8028 1.45002C16.9289 1.44249 16.8818 1.41616 16.9947 1.50457ZM17.6042 1.18853C17.4801 1.19606 17.5271 1.2224 17.4123 1.13398C17.5384 1.12646 17.4913 1.10012 17.6042 1.18853ZM17.4105 1.58734C17.307 1.59299 17.3653 1.61368 17.275 1.54031C17.3785 1.53655 17.3202 1.51398 17.4105 1.58734ZM17.8525 1.24873C17.7284 1.25626 17.7754 1.28259 17.6607 1.19418C17.7848 1.18665 17.7378 1.1622 17.8525 1.24873ZM18.0425 1.30329C17.9184 1.31081 17.9654 1.33715 17.8506 1.24873C17.9767 1.24121 17.9297 1.21487 18.0425 1.30329ZM18.2344 1.35596C18.1103 1.36348 18.1573 1.38982 18.0425 1.30141C18.1686 1.29576 18.1197 1.26943 18.2344 1.35596ZM17.8093 1.78298L15.7306 1.4218C15.945 1.33338 17.228 1.6118 17.5384 1.68893C17.6588 1.71902 17.7096 1.70398 17.8093 1.78298ZM18.0557 1.84318C17.9334 1.85071 17.9165 1.86387 17.8093 1.78298C17.9315 1.77358 17.9485 1.76041 18.0557 1.84318ZM18.5617 1.45566C18.4451 1.46319 18.3398 1.43685 18.2344 1.35596C18.351 1.34843 18.4564 1.37477 18.5617 1.45566ZM18.4206 1.66447C18.3172 1.67011 18.3755 1.69081 18.2852 1.61744C18.3887 1.61368 18.3303 1.59111 18.4206 1.66447ZM18.6972 1.50269C18.5937 1.50833 18.652 1.52903 18.5617 1.45566C18.6652 1.4519 18.6069 1.42932 18.6972 1.50269ZM18.2476 1.89774C18.1234 1.90526 18.1704 1.9316 18.0557 1.84318C18.1817 1.83566 18.1347 1.80932 18.2476 1.89774ZM18.8326 1.54972C18.7292 1.55536 18.7875 1.57606 18.6972 1.50269C18.8006 1.49893 18.7423 1.47635 18.8326 1.54972ZM18.383 1.94288C18.2796 1.94853 18.3379 1.96922 18.2476 1.89585C18.351 1.89209 18.2927 1.86952 18.383 1.94288ZM18.9624 1.85071C18.859 1.85635 18.9173 1.87704 18.827 1.80368C18.9304 1.79803 18.8721 1.77734 18.9624 1.85071ZM19.3142 1.98239C19.2107 1.98803 19.2691 2.00872 19.1788 1.93536C19.2822 1.92972 19.2239 1.90902 19.3142 1.98239ZM18.8326 1.54972C18.9643 1.54784 19.6585 1.8018 19.7751 1.92972L18.8326 1.54972ZM19.6886 2.14417C19.5719 2.14605 19.4986 2.10655 19.3932 2.02001C19.5117 2.01813 19.5832 2.05764 19.6886 2.14417ZM19.9895 2.01437L19.9726 2.01249C19.9745 2.01249 19.9914 2.00872 19.9895 2.01437ZM20.3902 2.21001C20.3376 2.19872 20.3959 2.21942 20.3075 2.18744C20.2698 2.17427 20.2811 2.17991 20.2266 2.15357C20.1419 2.11219 20.14 2.11219 20.0704 2.05387C20.1889 2.05199 20.2849 2.09526 20.3902 2.21001ZM20.5257 2.25516L20.5087 2.25328C20.5106 2.25328 20.5257 2.24951 20.5257 2.25516ZM20.6047 2.29466L20.5878 2.29278C20.5896 2.29278 20.6066 2.28902 20.6047 2.29466ZM1.68576 20.7414C1.66695 20.7188 1.62932 20.6737 1.61804 20.6474C1.58606 20.5759 1.60111 20.6078 1.59546 20.5589C1.61427 20.5815 1.6519 20.6267 1.66318 20.653C1.69516 20.7264 1.68011 20.6925 1.68576 20.7414ZM1.79863 20.9559C1.7817 20.9333 1.74031 20.8863 1.72714 20.8618L1.68388 20.7433C1.70081 20.7659 1.74219 20.8129 1.75536 20.8374L1.79863 20.9559ZM1.79863 20.9559L1.9115 21.1703C1.89457 21.1477 1.85318 21.1007 1.84001 21.0763L1.79863 20.9559ZM2.0808 21.3904L2.04882 21.4149L1.90397 21.2249L1.93595 21.2004L2.0808 21.3904ZM2.24258 21.6669L2.2106 21.6914L2.0413 21.4713L2.07328 21.4468L2.24258 21.6669ZM2.45328 22.0056L2.4213 22.03L2.25199 21.8099L2.28397 21.7855L2.45328 22.0056ZM2.63951 22.3141L2.62258 22.3122C2.62446 22.3122 2.63951 22.3084 2.63951 22.3141ZM26.6696 6.81323L26.79 6.97125L26.758 6.99571C26.7392 6.97313 26.7016 6.92798 26.6903 6.90165C26.6583 6.83016 26.6733 6.86214 26.6696 6.81323ZM26.5793 7.28352L26.5473 7.30798L26.4024 7.11798L26.4344 7.09353L26.5793 7.28352ZM26.7166 7.52808L26.6846 7.55253L26.5398 7.36253L26.5718 7.33808L26.7166 7.52808ZM26.7994 7.76698L26.679 7.60897L26.711 7.58451C26.7298 7.60709 26.7674 7.65223 26.7787 7.67857C26.8088 7.75005 26.7937 7.71807 26.7994 7.76698ZM26.7994 7.76698L26.9743 8.0454C27.0007 8.11688 26.9724 8.03411 26.9913 8.10371L27.0025 8.16203C26.9348 8.07362 26.9311 8.06233 26.8859 7.97579L26.7994 7.76698ZM27.0025 8.16203L27.1229 8.32005L27.091 8.3445C27.0721 8.32193 27.0345 8.27678 27.0232 8.25045C26.9913 8.17708 27.0063 8.21094 27.0025 8.16203ZM27.1643 8.43856C27.2264 8.51945 27.1173 8.48183 27.1455 8.45361C27.1455 8.45173 27.0966 8.35015 27.1643 8.43856ZM26.8821 8.8543C26.9386 8.90509 26.9292 8.99727 26.8784 8.89004C26.8746 8.88816 26.7768 8.76024 26.8821 8.8543ZM27.2283 8.58906L27.2113 8.58717C27.2132 8.58717 27.2302 8.58341 27.2283 8.58906ZM27.2941 8.73955L27.2772 8.73767C27.2791 8.73767 27.2941 8.73391 27.2941 8.73955ZM27.5067 9.27756L27.4898 9.27568C27.4898 9.27568 27.5067 9.27192 27.5067 9.27756ZM27.5462 9.39608L27.5293 9.3942C27.5311 9.3942 27.5481 9.39043 27.5462 9.39608ZM27.5876 9.51459C27.5876 9.52024 27.5744 9.51647 27.5707 9.51271C27.5725 9.51271 27.5876 9.50895 27.5876 9.51459ZM27.6816 9.44311C27.7437 9.524 27.6346 9.48637 27.6628 9.45816C27.6647 9.45627 27.6158 9.35469 27.6816 9.44311ZM27.723 9.56162C27.7851 9.64251 27.6779 9.60489 27.7042 9.57667C27.7042 9.57479 27.6553 9.47321 27.723 9.56162ZM27.8566 10.062C27.7418 9.91152 27.8096 10.0018 27.8152 9.9435C27.93 10.0921 27.8604 10.0018 27.8566 10.062ZM27.913 10.2671C27.7983 10.1166 27.866 10.2069 27.8716 10.1485C27.9864 10.299 27.9187 10.2087 27.913 10.2671ZM27.93 10.3555C28.0052 10.4721 27.9939 10.4533 27.9883 10.5624C27.913 10.4439 27.9243 10.4627 27.93 10.3555ZM28.0052 10.6489C28.1049 10.8032 28.1406 11.1663 28.1764 11.3525C28.214 11.5425 28.3194 11.8905 28.2742 12.0466C28.2159 11.9187 27.9939 10.8239 28.0052 10.6489ZM28.2761 15.4478L28.2309 15.7826C28.1802 15.6566 28.1933 15.555 28.2761 15.4478ZM28.1275 16.5633C28.1331 16.6668 28.1538 16.6085 28.0804 16.6988C28.0767 16.5934 28.0541 16.6536 28.1275 16.5633ZM28.5432 16.6461C28.5489 16.7496 28.5696 16.6913 28.4962 16.7815C28.4905 16.6781 28.468 16.7364 28.5432 16.6461ZM27.7776 18.1322L27.7607 18.1303C27.7625 18.1303 27.7795 18.1266 27.7776 18.1322ZM27.6666 19.6202L27.6497 19.6184C27.6497 19.6184 27.6666 19.6146 27.6666 19.6202ZM27.6271 19.7011L27.6102 19.6992C27.612 19.6974 27.6271 19.6955 27.6271 19.7011ZM27.5424 19.9156L27.5255 19.9137C27.5255 19.9137 27.5424 19.9099 27.5424 19.9156ZM27.5029 19.9965L27.486 19.9946C27.4879 19.9946 27.5029 19.9908 27.5029 19.9965ZM27.4634 20.0755L27.4465 20.0736C27.4484 20.0736 27.4653 20.0698 27.4634 20.0755ZM27.4258 20.1564L27.4089 20.1545C27.4089 20.1526 27.4258 20.1507 27.4258 20.1564ZM27.3863 20.2354L27.3694 20.2335C27.3713 20.2335 27.3863 20.2297 27.3863 20.2354ZM27.153 20.7151L27.1361 20.7132C27.1361 20.7132 27.153 20.7094 27.153 20.7151ZM27.1135 20.7941L27.0966 20.7922C27.0985 20.7922 27.1135 20.7884 27.1135 20.7941ZM27.074 20.875L27.0571 20.8731C27.059 20.8731 27.0759 20.8693 27.074 20.875ZM27.0345 20.954L27.0176 20.9521C27.0195 20.9521 27.0364 20.9483 27.0345 20.954ZM26.9254 21.1383L26.9085 21.1365C26.9104 21.1365 26.9273 21.1327 26.9254 21.1383ZM26.8878 21.2192L26.8709 21.2173C26.8709 21.2173 26.8878 21.2136 26.8878 21.2192ZM26.8483 21.2982L26.8314 21.2964C26.8332 21.2964 26.8483 21.2926 26.8483 21.2982Z" fill="#3CA5DA"/>
<path id="Vector_2" fill-rule="evenodd" clip-rule="evenodd" d="M13.7007 16.7499C13.6857 16.7047 13.4806 16.4432 13.4336 16.3812C13.4016 16.3379 13.3734 16.3021 13.3433 16.2589L12.7263 15.3954C12.239 14.7445 8.24155 11.0574 7.58314 10.8411C7.52106 11.033 5.5496 13.7645 5.23168 14.1539C4.92129 14.5338 4.97584 14.2987 5.67187 14.5244C5.81484 14.5715 5.96722 14.6411 6.08949 14.7032L6.36979 14.8649C8.33185 16.0576 10.2826 18.3846 11.5806 20.1285C11.844 20.4821 12.0716 20.8527 12.3312 21.2082C12.5306 21.4791 12.7131 21.7632 12.9125 22.0341C12.9539 22.0886 12.9877 22.1413 13.031 22.1977C13.078 22.2617 13.4562 22.8072 13.5164 22.843C13.5352 22.8148 13.5521 22.779 13.569 22.7452C13.5878 22.7075 13.601 22.6812 13.6198 22.6473L14.3685 21.2402C14.4024 21.1744 14.4381 21.1104 14.472 21.0465C14.4889 21.0164 14.5058 20.9825 14.5247 20.9505L14.9084 20.2507C15.0589 19.9516 15.2941 19.5754 15.4615 19.2706L17.0586 16.5486L17.6512 15.6005C17.6907 15.5365 17.7264 15.4688 17.7697 15.4086C17.8581 15.2901 17.9239 15.1509 18.0123 15.0305C18.097 14.9176 18.2814 14.6147 18.3773 14.4737C18.4206 14.4097 18.4563 14.3457 18.4996 14.2855L18.8758 13.7268C18.9191 13.6666 18.9605 13.6064 19.0037 13.5425C19.0884 13.4164 19.1693 13.3036 19.2539 13.1794L19.4439 12.9066C19.4646 12.8747 19.4909 12.8446 19.5116 12.8126L20.7005 11.1891C20.9225 10.8938 21.1633 10.6097 21.3834 10.3144C21.5414 10.1037 21.9139 9.65974 22.0907 9.45093L23.7085 7.61867C23.9606 7.3459 24.2108 7.06937 24.4779 6.80412L24.8692 6.4072C25.0498 6.21908 25.2342 6.02908 25.4298 5.85037L26.5623 4.76682C26.5773 4.75365 26.5867 4.748 26.6018 4.73484L27.057 4.30781C27.0928 4.27771 27.1059 4.26831 27.1379 4.23445C27.1661 4.20435 27.1962 4.1893 27.2263 4.15732L27.8038 3.63247C27.8415 3.60237 27.8565 3.5892 27.8904 3.55534L28.2309 3.25624C28.2647 3.22802 28.276 3.20921 28.3099 3.18099L30.3697 1.41269C30.4506 1.33368 30.5466 1.26596 30.6331 1.19071C30.6651 1.1625 30.6764 1.14556 30.7121 1.11547L31.2351 0.679035C31.2671 0.652698 31.3047 0.635768 31.3179 0.598145C31.0902 0.722302 30.8683 0.867152 30.6482 0.998834C30.5898 1.03269 30.5409 1.06091 30.4845 1.09665L28.1669 2.54139C28.1086 2.57902 28.0559 2.60912 27.9995 2.64674L26.6958 3.49703C26.3779 3.71712 26.0525 3.92405 25.7383 4.14791C25.7101 4.1686 25.6932 4.17613 25.6649 4.1987L24.1167 5.31424C24.0133 5.40077 23.8364 5.51552 23.7292 5.60206C23.701 5.62463 23.6822 5.63968 23.6559 5.66225C23.6239 5.68859 23.6069 5.69423 23.575 5.71869C23.4376 5.82215 23.1837 6.04225 23.0576 6.12502L21.4643 7.45501C21.4361 7.48323 21.4286 7.49263 21.3947 7.51897L21.0486 7.83124C21.0185 7.8557 21.0015 7.86698 20.9771 7.89332L20.4334 8.39747C20.4014 8.42381 20.392 8.43698 20.3657 8.46143C20.3525 8.47272 20.345 8.47648 20.3318 8.48965L19.632 9.1744C19.2464 9.5732 18.8589 9.97013 18.4845 10.3765L18.1083 10.796C17.7358 11.2004 17.2599 11.7873 16.9137 12.2106C16.8347 12.3065 16.7614 12.4025 16.6842 12.4965L15.3543 14.2761C15.2226 14.4567 14.8952 14.9157 14.7786 15.1095C14.7579 15.1415 14.7429 15.1584 14.7259 15.1866C14.6921 15.2393 14.6563 15.2882 14.6206 15.3428L14.107 16.1234C14.0393 16.2344 13.9772 16.3266 13.9095 16.4376C13.8738 16.4959 13.8418 16.5373 13.8079 16.5956C13.7816 16.637 13.7402 16.7273 13.7007 16.7499Z" fill="#3CA5DA"/>
</g>
</svg>
